<mxfile host="app.diagrams.net" agent="Mozilla/5.0 (Windows NT 10.0; Win64; x64) AppleWebKit/537.36 (KHTML, like Gecko) Chrome/141.0.0.0 Safari/537.36" version="28.2.5">
  <diagram name="Сторінка-1" id="wTBr3zXQSaf8Tkmh3ozc">
    <mxGraphModel dx="1042" dy="562" grid="1" gridSize="10" guides="1" tooltips="1" connect="1" arrows="1" fold="1" page="1" pageScale="1" pageWidth="827" pageHeight="1169" math="0" shadow="0">
      <root>
        <mxCell id="0" />
        <mxCell id="1" parent="0" />
        <mxCell id="C1nlh3km6crrO_T8OT3Q-1" value="Початок" style="strokeWidth=2;html=1;shape=mxgraph.flowchart.terminator;whiteSpace=wrap;" vertex="1" parent="1">
          <mxGeometry x="40" y="10" width="80" height="30" as="geometry" />
        </mxCell>
        <mxCell id="C1nlh3km6crrO_T8OT3Q-2" value="&lt;font style=&quot;font-size: 10px;&quot;&gt;Завантаження зображення&lt;/font&gt;" style="shape=parallelogram;perimeter=parallelogramPerimeter;whiteSpace=wrap;html=1;fixedSize=1;" vertex="1" parent="1">
          <mxGeometry x="20" y="60" width="120" height="60" as="geometry" />
        </mxCell>
        <mxCell id="C1nlh3km6crrO_T8OT3Q-3" value="" style="endArrow=classic;html=1;rounded=0;" edge="1" parent="1">
          <mxGeometry width="50" height="50" relative="1" as="geometry">
            <mxPoint x="79.75999999999999" y="40" as="sourcePoint" />
            <mxPoint x="79.75999999999999" y="60" as="targetPoint" />
          </mxGeometry>
        </mxCell>
        <mxCell id="C1nlh3km6crrO_T8OT3Q-4" value="" style="endArrow=classic;html=1;rounded=0;" edge="1" parent="1">
          <mxGeometry width="50" height="50" relative="1" as="geometry">
            <mxPoint x="79.75999999999999" y="120" as="sourcePoint" />
            <mxPoint x="79.75999999999999" y="140" as="targetPoint" />
          </mxGeometry>
        </mxCell>
        <mxCell id="C1nlh3km6crrO_T8OT3Q-5" value="Підвищення яскравості на 20%" style="shape=process;whiteSpace=wrap;html=1;backgroundOutline=1;" vertex="1" parent="1">
          <mxGeometry x="20" y="140" width="120" height="60" as="geometry" />
        </mxCell>
        <mxCell id="C1nlh3km6crrO_T8OT3Q-6" value="" style="endArrow=classic;html=1;rounded=0;" edge="1" parent="1">
          <mxGeometry width="50" height="50" relative="1" as="geometry">
            <mxPoint x="79.75999999999999" y="200" as="sourcePoint" />
            <mxPoint x="79.75999999999999" y="220" as="targetPoint" />
          </mxGeometry>
        </mxCell>
        <mxCell id="C1nlh3km6crrO_T8OT3Q-7" value="Конвертація в колірний простір HSV" style="shape=process;whiteSpace=wrap;html=1;backgroundOutline=1;" vertex="1" parent="1">
          <mxGeometry x="20" y="220" width="120" height="60" as="geometry" />
        </mxCell>
        <mxCell id="C1nlh3km6crrO_T8OT3Q-8" value="" style="endArrow=classic;html=1;rounded=0;" edge="1" parent="1">
          <mxGeometry width="50" height="50" relative="1" as="geometry">
            <mxPoint x="79.75999999999999" y="280" as="sourcePoint" />
            <mxPoint x="79.75999999999999" y="300" as="targetPoint" />
          </mxGeometry>
        </mxCell>
        <mxCell id="C1nlh3km6crrO_T8OT3Q-9" value="Бінаризація" style="shape=process;whiteSpace=wrap;html=1;backgroundOutline=1;" vertex="1" parent="1">
          <mxGeometry x="20" y="300" width="120" height="60" as="geometry" />
        </mxCell>
        <mxCell id="C1nlh3km6crrO_T8OT3Q-10" value="" style="endArrow=classic;html=1;rounded=0;" edge="1" parent="1">
          <mxGeometry width="50" height="50" relative="1" as="geometry">
            <mxPoint x="79.75999999999999" y="360" as="sourcePoint" />
            <mxPoint x="79.75999999999999" y="380" as="targetPoint" />
          </mxGeometry>
        </mxCell>
        <mxCell id="C1nlh3km6crrO_T8OT3Q-11" value="Морфологічна обробка:&lt;br&gt;відкриття, закриття" style="shape=process;whiteSpace=wrap;html=1;backgroundOutline=1;" vertex="1" parent="1">
          <mxGeometry x="20" y="380" width="120" height="60" as="geometry" />
        </mxCell>
        <mxCell id="C1nlh3km6crrO_T8OT3Q-12" value="Кінець" style="strokeWidth=2;html=1;shape=mxgraph.flowchart.terminator;whiteSpace=wrap;" vertex="1" parent="1">
          <mxGeometry x="240" y="471.5" width="80" height="30" as="geometry" />
        </mxCell>
        <mxCell id="C1nlh3km6crrO_T8OT3Q-13" value="" style="endArrow=classic;html=1;rounded=0;" edge="1" parent="1">
          <mxGeometry width="50" height="50" relative="1" as="geometry">
            <mxPoint x="79.75999999999999" y="440" as="sourcePoint" />
            <mxPoint x="79.75999999999999" y="460" as="targetPoint" />
          </mxGeometry>
        </mxCell>
        <mxCell id="C1nlh3km6crrO_T8OT3Q-14" value="Пошук контурів" style="shape=process;whiteSpace=wrap;html=1;backgroundOutline=1;" vertex="1" parent="1">
          <mxGeometry x="20" y="460" width="120" height="60" as="geometry" />
        </mxCell>
        <mxCell id="C1nlh3km6crrO_T8OT3Q-15" value="" style="endArrow=classic;html=1;rounded=0;" edge="1" parent="1">
          <mxGeometry width="50" height="50" relative="1" as="geometry">
            <mxPoint x="79.75999999999999" y="520" as="sourcePoint" />
            <mxPoint x="79.75999999999999" y="540" as="targetPoint" />
          </mxGeometry>
        </mxCell>
        <mxCell id="C1nlh3km6crrO_T8OT3Q-20" value="&lt;font style=&quot;font-size: 18px;&quot;&gt;А&lt;/font&gt;" style="ellipse;whiteSpace=wrap;html=1;aspect=fixed;" vertex="1" parent="1">
          <mxGeometry x="60" y="540" width="40" height="40" as="geometry" />
        </mxCell>
        <mxCell id="C1nlh3km6crrO_T8OT3Q-21" value="&lt;font style=&quot;font-size: 18px;&quot;&gt;А&lt;/font&gt;" style="ellipse;whiteSpace=wrap;html=1;aspect=fixed;" vertex="1" parent="1">
          <mxGeometry x="260" y="10" width="40" height="40" as="geometry" />
        </mxCell>
        <mxCell id="C1nlh3km6crrO_T8OT3Q-23" value="" style="endArrow=classic;html=1;rounded=0;" edge="1" parent="1">
          <mxGeometry width="50" height="50" relative="1" as="geometry">
            <mxPoint x="279.71" y="370" as="sourcePoint" />
            <mxPoint x="279.71" y="390" as="targetPoint" />
          </mxGeometry>
        </mxCell>
        <mxCell id="C1nlh3km6crrO_T8OT3Q-24" value="" style="endArrow=classic;html=1;rounded=0;" edge="1" parent="1">
          <mxGeometry width="50" height="50" relative="1" as="geometry">
            <mxPoint x="279.76" y="450.5" as="sourcePoint" />
            <mxPoint x="279.76" y="470.5" as="targetPoint" />
          </mxGeometry>
        </mxCell>
        <mxCell id="C1nlh3km6crrO_T8OT3Q-26" value="" style="endArrow=classic;html=1;rounded=0;" edge="1" parent="1">
          <mxGeometry width="50" height="50" relative="1" as="geometry">
            <mxPoint x="279.72" y="50" as="sourcePoint" />
            <mxPoint x="279.72" y="70" as="targetPoint" />
          </mxGeometry>
        </mxCell>
        <mxCell id="C1nlh3km6crrO_T8OT3Q-27" value="Збереження результатів" style="shape=parallelogram;perimeter=parallelogramPerimeter;whiteSpace=wrap;html=1;fixedSize=1;" vertex="1" parent="1">
          <mxGeometry x="220" y="390.5" width="120" height="60" as="geometry" />
        </mxCell>
        <mxCell id="C1nlh3km6crrO_T8OT3Q-28" value="Відображення результатів" style="shape=parallelogram;perimeter=parallelogramPerimeter;whiteSpace=wrap;html=1;fixedSize=1;" vertex="1" parent="1">
          <mxGeometry x="220" y="310" width="120" height="60" as="geometry" />
        </mxCell>
        <mxCell id="C1nlh3km6crrO_T8OT3Q-35" value="Фільтрація за співвідношенням сторін" style="shape=process;whiteSpace=wrap;html=1;backgroundOutline=1;" vertex="1" parent="1">
          <mxGeometry x="220" y="230" width="120" height="60" as="geometry" />
        </mxCell>
        <mxCell id="C1nlh3km6crrO_T8OT3Q-36" value="" style="endArrow=classic;html=1;rounded=0;" edge="1" parent="1">
          <mxGeometry width="50" height="50" relative="1" as="geometry">
            <mxPoint x="279.76" y="290" as="sourcePoint" />
            <mxPoint x="279.76" y="310" as="targetPoint" />
          </mxGeometry>
        </mxCell>
        <mxCell id="C1nlh3km6crrO_T8OT3Q-37" value="Фільтрація за площею" style="shape=process;whiteSpace=wrap;html=1;backgroundOutline=1;" vertex="1" parent="1">
          <mxGeometry x="220" y="70" width="120" height="60" as="geometry" />
        </mxCell>
        <mxCell id="C1nlh3km6crrO_T8OT3Q-38" value="" style="endArrow=classic;html=1;rounded=0;" edge="1" parent="1">
          <mxGeometry width="50" height="50" relative="1" as="geometry">
            <mxPoint x="279.76" y="130" as="sourcePoint" />
            <mxPoint x="279.76" y="150" as="targetPoint" />
          </mxGeometry>
        </mxCell>
        <mxCell id="C1nlh3km6crrO_T8OT3Q-39" value="Знаходження обмежувальних прямокутників" style="shape=process;whiteSpace=wrap;html=1;backgroundOutline=1;" vertex="1" parent="1">
          <mxGeometry x="220" y="150" width="120" height="60" as="geometry" />
        </mxCell>
        <mxCell id="C1nlh3km6crrO_T8OT3Q-40" value="" style="endArrow=classic;html=1;rounded=0;" edge="1" parent="1">
          <mxGeometry width="50" height="50" relative="1" as="geometry">
            <mxPoint x="279.76" y="210" as="sourcePoint" />
            <mxPoint x="279.76" y="230" as="targetPoint" />
          </mxGeometry>
        </mxCell>
      </root>
    </mxGraphModel>
  </diagram>
</mxfile>
